<svg width="150" height="148" viewBox="0 0 150 148" fill="none" xmlns="http://www.w3.org/2000/svg">
<ellipse cx="75" cy="73.5849" rx="75" ry="73.5849" fill="#07A6FF"/>
<g clip-path="url(#clip0_23_738)">
<path d="M74.2924 108.962C84.2381 108.962 93.7763 105.16 100.809 98.3933C107.842 91.626 111.792 82.4477 111.792 72.8774C111.792 63.3071 107.842 54.1287 100.809 47.3615C93.7763 40.5943 84.2381 36.7925 74.2924 36.7925C64.3468 36.7925 54.8086 40.5943 47.7759 47.3615C40.7433 54.1287 36.7924 63.3071 36.7924 72.8774C36.7924 82.4477 40.7433 91.626 47.7759 98.3933C54.8086 105.16 64.3468 108.962 74.2924 108.962ZM69.6049 66.1115C69.6049 68.3713 68.8362 67.8977 67.6596 67.1715C66.8862 66.6933 65.9393 66.1115 64.9174 66.1115C63.8956 66.1115 62.9487 66.6978 62.1753 67.1715C60.9987 67.8977 60.2299 68.3668 60.2299 66.1115C60.2299 62.3767 62.33 59.3455 64.9174 59.3455C67.5049 59.3455 69.6049 62.3767 69.6049 66.1115ZM94.594 79.6433C95.0054 80.329 95.222 81.1068 95.222 81.8986C95.222 82.6904 95.0054 83.4682 94.594 84.1539C92.5373 87.5836 89.5781 90.4315 86.0142 92.4111C82.4503 94.3907 78.4075 95.4321 74.2924 95.4304C70.1782 95.4313 66.1363 94.3895 62.5733 92.41C59.0103 90.4304 56.0519 87.5829 53.9956 84.1539C53.5844 83.4686 53.3678 82.6912 53.3676 81.8998C53.3674 81.1084 53.5835 80.3309 53.9944 79.6453C54.4052 78.9597 54.9963 78.3903 55.7082 77.994C56.4201 77.5978 57.2278 77.3888 58.0503 77.388H90.5346C91.3574 77.388 92.1658 77.5964 92.8783 77.9923C93.5909 78.3882 94.1826 78.9576 94.594 79.6433ZM86.4096 67.1715C85.6362 66.6933 84.6893 66.1115 83.6674 66.1115C82.6456 66.1115 81.6987 66.6978 80.9253 67.1715C79.7487 67.8977 78.9799 68.3668 78.9799 66.1115C78.9799 62.3767 81.08 59.3455 83.6674 59.3455C86.2549 59.3455 88.3549 62.3767 88.3549 66.1115C88.3549 68.3713 87.5862 67.8977 86.4096 67.1715Z" fill="white"/>
</g>
<defs>
<clipPath id="clip0_23_738">
<rect width="75" height="72.1698" fill="white" transform="translate(36.7924 36.7925)"/>
</clipPath>
</defs>
</svg>
