<svg width="145" height="137" viewBox="0 0 145 137" fill="none" xmlns="http://www.w3.org/2000/svg">
<ellipse cx="72.5" cy="68.4441" rx="72.5" ry="68.4441" fill="#0267FF"/>
<path d="M38.6668 97H47.0002V114.004L68.2543 97H88.6668C93.2627 97 97.0002 93.2625 97.0002 88.6667V55.3333C97.0002 50.7375 93.2627 47 88.6668 47H38.6668C34.071 47 30.3335 50.7375 30.3335 55.3333V88.6667C30.3335 93.2625 34.071 97 38.6668 97Z" fill="white"/>
<path d="M105.333 30.3333H55.3333C50.7375 30.3333 47 34.0708 47 38.6666H97C101.596 38.6666 105.333 42.4041 105.333 47V80.3333C109.929 80.3333 113.667 76.5958 113.667 72V38.6666C113.667 34.0708 109.929 30.3333 105.333 30.3333Z" fill="white"/>
</svg>
