<svg width="50" height="50" viewBox="0 0 50 50" fill="none" xmlns="http://www.w3.org/2000/svg">
<path d="M45 25C45 19.6957 42.8929 14.6086 39.1421 10.8579C35.3914 7.10714 30.3043 5 25 5C19.6957 5 14.6086 7.10714 10.8579 10.8579C7.10714 14.6086 5 19.6957 5 25C5 30.3043 7.10714 35.3914 10.8579 39.1421C14.6086 42.8929 19.6957 45 25 45C30.3043 45 35.3914 42.8929 39.1421 39.1421C42.8929 35.3914 45 30.3043 45 25ZM28.75 21.25C28.75 20.587 29.0134 19.9511 29.4822 19.4822C29.9511 19.0134 30.587 18.75 31.25 18.75C31.913 18.75 32.5489 19.0134 33.0178 19.4822C33.4866 19.9511 33.75 20.587 33.75 21.25C33.75 21.913 33.4866 22.5489 33.0178 23.0178C32.5489 23.4866 31.913 23.75 31.25 23.75C30.587 23.75 29.9511 23.4866 29.4822 23.0178C29.0134 22.5489 28.75 21.913 28.75 21.25ZM16.25 21.25C16.25 20.587 16.5134 19.9511 16.9822 19.4822C17.4511 19.0134 18.087 18.75 18.75 18.75C19.413 18.75 20.0489 19.0134 20.5178 19.4822C20.9866 19.9511 21.25 20.587 21.25 21.25C21.25 21.913 20.9866 22.5489 20.5178 23.0178C20.0489 23.4866 19.413 23.75 18.75 23.75C18.087 23.75 17.4511 23.4866 16.9822 23.0178C16.5134 22.5489 16.25 21.913 16.25 21.25ZM17.2225 31.2875C18.1601 32.447 19.3451 33.3822 20.6908 34.0246C22.0365 34.6669 23.5088 35.0002 25 35C26.4912 35.0002 27.9635 34.6669 29.3092 34.0246C30.6549 33.3822 31.8399 32.447 32.7775 31.2875C32.8808 31.1598 33.0081 31.0537 33.1524 30.9752C33.2967 30.8967 33.455 30.8474 33.6183 30.8301C33.7816 30.8128 33.9467 30.8279 34.1042 30.8744C34.2617 30.9209 34.4085 30.998 34.5362 31.1012C34.664 31.2045 34.7701 31.3319 34.8486 31.4762C34.927 31.6204 34.9763 31.7787 34.9936 31.9421C35.0109 32.1054 34.9959 32.2705 34.9494 32.428C34.9028 32.5855 34.8258 32.7323 34.7225 32.86C33.5504 34.3094 32.069 35.4783 30.3868 36.2811C28.7045 37.084 26.864 37.5004 25 37.5C23.136 37.5004 21.2955 37.084 19.6132 36.2811C17.931 35.4783 16.4496 34.3094 15.2775 32.86C15.1741 32.7323 15.0968 32.5855 15.0502 32.4279C15.0035 32.2703 14.9883 32.1051 15.0055 31.9417C15.0227 31.7783 15.0719 31.6198 15.1503 31.4754C15.2287 31.331 15.3348 31.2034 15.4625 31.1C15.5902 30.9966 15.737 30.9193 15.8946 30.8727C16.0522 30.826 16.2174 30.8108 16.3808 30.828C16.5442 30.8452 16.7027 30.8944 16.8471 30.9728C16.9915 31.0512 17.1191 31.1573 17.2225 31.285" fill="black"/>
</svg>
