<svg width="50" height="50" viewBox="0 0 50 50" fill="none" xmlns="http://www.w3.org/2000/svg">
<path d="M45 25C45 23.6739 44.4732 22.4021 43.5355 21.4645C42.5979 20.5268 41.3261 20 40 20H10C8.67392 20 7.40215 20.5268 6.46447 21.4645C5.52678 22.4021 5 23.6739 5 25C5 26.3261 5.52678 27.5979 6.46447 28.5355C7.40215 29.4732 8.67392 30 10 30H40C41.3261 30 42.5979 29.4732 43.5355 28.5355C44.4732 27.5979 45 26.3261 45 25ZM25 10C25 8.67392 24.4732 7.40215 23.5355 6.46447C22.5979 5.52678 21.3261 5 20 5H10C8.67392 5 7.40215 5.52678 6.46447 6.46447C5.52678 7.40215 5 8.67392 5 10C5 11.3261 5.52678 12.5979 6.46447 13.5355C7.40215 14.4732 8.67392 15 10 15H20C21.3261 15 22.5979 14.4732 23.5355 13.5355C24.4732 12.5979 25 11.3261 25 10ZM35 40C35 38.6739 34.4732 37.4021 33.5355 36.4645C32.5979 35.5268 31.3261 35 30 35H10C8.67392 35 7.40215 35.5268 6.46447 36.4645C5.52678 37.4021 5 38.6739 5 40C5 41.3261 5.52678 42.5979 6.46447 43.5355C7.40215 44.4732 8.67392 45 10 45H30C31.3261 45 32.5979 44.4732 33.5355 43.5355C34.4732 42.5979 35 41.3261 35 40Z" fill="black"/>
</svg>
