<svg width="106" height="104" viewBox="0 0 106 104" fill="none" xmlns="http://www.w3.org/2000/svg">
<ellipse cx="53" cy="52" rx="53" ry="52" fill="#07A6FF"/>
<g clip-path="url(#clip0_7_413)">
<path d="M52.5 77C59.5282 77 66.2686 74.3134 71.2383 69.5312C76.208 64.749 79 58.263 79 51.5C79 44.737 76.208 38.251 71.2383 33.4688C66.2686 28.6866 59.5282 26 52.5 26C45.4718 26 38.7314 28.6866 33.7617 33.4688C28.792 38.251 26 44.737 26 51.5C26 58.263 28.792 64.749 33.7617 69.5312C38.7314 74.3134 45.4718 77 52.5 77ZM49.1875 46.7188C49.1875 48.3157 48.6443 47.981 47.8128 47.4678C47.2663 47.1299 46.5971 46.7188 45.875 46.7188C45.1529 46.7188 44.4837 47.1331 43.9372 47.4678C43.1057 47.981 42.5625 48.3125 42.5625 46.7188C42.5625 44.0795 44.0465 41.9375 45.875 41.9375C47.7035 41.9375 49.1875 44.0795 49.1875 46.7188ZM66.8464 56.2812C67.1372 56.7658 67.2902 57.3155 67.2902 57.875C67.2902 58.4345 67.1372 58.9842 66.8464 59.4688C65.393 61.8924 63.3019 63.9049 60.7834 65.3038C58.2649 66.7027 55.4079 67.4386 52.5 67.4375C49.5926 67.4381 46.7363 66.7019 44.2185 65.303C41.7006 63.9042 39.61 61.8919 38.1569 59.4688C37.8663 58.9844 37.7132 58.4351 37.7131 57.8758C37.7129 57.3166 37.8657 56.7671 38.156 56.2827C38.4464 55.7982 38.864 55.3958 39.3671 55.1158C39.8702 54.8358 40.441 54.6881 41.0222 54.6875H63.9778C64.5593 54.6875 65.1305 54.8348 65.634 55.1146C66.1376 55.3943 66.5557 55.7967 66.8464 56.2812ZM61.0628 47.4678C60.5163 47.1299 59.8471 46.7188 59.125 46.7188C58.4029 46.7188 57.7337 47.1331 57.1872 47.4678C56.3557 47.981 55.8125 48.3125 55.8125 46.7188C55.8125 44.0795 57.2965 41.9375 59.125 41.9375C60.9535 41.9375 62.4375 44.0795 62.4375 46.7188C62.4375 48.3157 61.8942 47.981 61.0628 47.4678Z" fill="white"/>
</g>
<defs>
<clipPath id="clip0_7_413">
<rect width="53" height="51" fill="white" transform="translate(26 26)"/>
</clipPath>
</defs>
</svg>
