<svg width="132" height="30" viewBox="0 0 132 30" fill="none" xmlns="http://www.w3.org/2000/svg">
<path d="M23.8932 5.98747C23.4538 4.43471 22.9058 3.32749 22.2476 2.66249C21.5894 1.99749 20.4934 1.44388 18.9565 1M1 5.98747C1.34392 4.43471 1.84253 3.32749 2.50076 2.66249C3.15899 1.99749 4.3043 1.44388 5.93671 1M16.4881 26.7686C15.3905 28.4311 14.0197 29.2623 12.3742 29.2623C10.7286 29.2623 9.35785 28.4311 8.26025 26.7686M20.7419 24.2749H4.00646C3.52568 24.2751 3.05347 24.1464 2.63808 23.9018C2.22269 23.6572 1.87903 23.3056 1.64221 22.8829C1.40539 22.4602 1.28392 21.9816 1.2902 21.4959C1.29649 21.0102 1.4303 20.5349 1.67797 20.1186C3.29299 17.3992 4.14617 14.2876 4.14633 11.1163V9.31245C4.14633 7.54877 4.83982 5.85733 6.07423 4.61022C7.30865 3.36311 8.98288 2.66249 10.7286 2.66249H14.0197C15.7655 2.66249 17.4397 3.36311 18.6741 4.61022C19.9085 5.85733 20.602 7.54877 20.602 9.31245V11.1163C20.602 14.2866 21.4544 17.4005 23.0704 20.1186C23.3181 20.5349 23.4519 21.0102 23.4582 21.4959C23.4644 21.9816 23.343 22.4602 23.1061 22.8829C22.8693 23.3056 22.5257 23.6572 22.1103 23.9018C21.6949 24.1464 21.2227 24.2751 20.7419 24.2749Z" stroke="black" stroke-linecap="round" stroke-linejoin="round"/>
<path d="M78.0427 1C75.0583 1 72.4632 2.42345 70.9369 4.8089C69.4105 2.42345 66.8155 1 63.831 1C61.5703 1.00278 59.4029 1.95386 57.8044 3.64459C56.2058 5.33533 55.3066 7.62765 55.304 10.0187C55.304 14.4078 57.8905 18.9758 62.9925 23.5934C65.3304 25.7004 67.8558 27.5629 70.5333 29.1549C70.6573 29.2254 70.796 29.2623 70.9369 29.2623C71.0777 29.2623 71.2164 29.2254 71.3405 29.1549C74.0179 27.5629 76.5433 25.7004 78.8812 23.5934C83.9832 18.9758 86.5698 14.4078 86.5698 10.0187C86.5671 7.62765 85.6679 5.33533 84.0694 3.64459C82.4708 1.95386 80.3034 1.00278 78.0427 1ZM70.9369 27.3211C68.6047 25.8977 57.0094 18.3941 57.0094 10.0187C57.0112 8.10579 57.7306 6.27179 59.0095 4.91915C60.2883 3.56652 62.0224 2.80573 63.831 2.80374C66.7131 2.80374 69.1334 4.43162 70.1481 7.05306C70.2124 7.21847 70.3216 7.35995 70.4621 7.45952C70.6025 7.55909 70.7678 7.61225 70.9369 7.61225C71.1059 7.61225 71.2712 7.55909 71.4116 7.45952C71.5521 7.35995 71.6614 7.21847 71.7256 7.05306C72.7403 4.43162 75.1606 2.80374 78.0427 2.80374C79.8514 2.80573 81.5854 3.56652 82.8643 4.91915C84.1432 6.27179 84.8625 8.10579 84.8644 10.0187C84.8644 18.3941 73.269 25.8977 70.9369 27.3211Z" fill="black"/>
<path d="M119.481 1H129.354C129.791 1 130.209 1.22905 130.518 1.63676C130.827 2.04447 131 2.59744 131 3.17403V29.2623L124.418 20.5662L117.836 29.2623V3.17403C117.836 2.59744 118.009 2.04447 118.317 1.63676C118.626 1.22905 119.045 1 119.481 1Z" stroke="black" stroke-linecap="round" stroke-linejoin="round"/>
</svg>
