<svg width="18" height="15" viewBox="0 0 18 15" fill="none" xmlns="http://www.w3.org/2000/svg">
<path d="M17.385 11.7666L14.3443 9.46164L12.0055 8.72917C12.7843 7.88969 13.2015 6.8882 13.2 5.86194C13.2 3.10324 10.2392 0.858887 6.59999 0.858887C2.96073 0.858887 0 3.10324 0 5.86194C0 8.62064 2.96073 10.865 6.59999 10.865C7.96559 10.8662 9.29768 10.5444 10.4107 9.94463L11.3744 11.7128L14.415 14.0178C14.61 14.1656 14.8415 14.2829 15.0963 14.3629C15.351 14.4429 15.6241 14.4841 15.8999 14.4841C16.1757 14.4841 16.4488 14.4429 16.7036 14.3629C16.9583 14.2829 17.1899 14.1657 17.3849 14.0179C17.5799 13.8701 17.7346 13.6946 17.8401 13.5014C17.9457 13.3083 18 13.1013 18 12.8922C18 12.6832 17.9457 12.4762 17.8402 12.283C17.7346 12.0899 17.58 11.9144 17.385 11.7666ZM1.2 5.86194C1.2 3.60488 3.62249 1.76853 6.59999 1.76853C9.57748 1.76853 12 3.60488 12 5.86194C12 8.119 9.57748 9.95535 6.59999 9.95535C3.62249 9.95535 1.2 8.119 1.2 5.86194ZM16.5364 13.3746C16.3675 13.5024 16.1386 13.5741 15.9 13.5741C15.6613 13.5741 15.4325 13.5024 15.2636 13.3746L12.3921 11.1979L11.4961 9.55388L13.665 10.2331L16.5364 12.4098C16.705 12.5378 16.7996 12.7113 16.7996 12.8922C16.7996 13.0731 16.7049 13.2466 16.5364 13.3746Z" fill="black"/>
</svg>
