<svg width="81" height="19" viewBox="0 0 81 19" fill="none" xmlns="http://www.w3.org/2000/svg">
<path d="M12.997 15H2.827C2.53484 15.0001 2.24788 14.9227 1.99545 14.7756C1.74302 14.6285 1.53418 14.417 1.39027 14.1627C1.24635 13.9085 1.17254 13.6206 1.17635 13.3284C1.18017 13.0363 1.26149 12.7504 1.412 12.5C2.39343 10.8643 2.9119 8.99257 2.912 7.085V6C2.912 4.93913 3.33343 3.92172 4.08357 3.17157C4.83372 2.42143 5.85113 2 6.912 2H8.912C9.97287 2 10.9903 2.42143 11.7404 3.17157C12.4906 3.92172 12.912 4.93913 12.912 6V7.085C12.912 8.992 13.43 10.865 14.412 12.5C14.5625 12.7504 14.6438 13.0363 14.6476 13.3284C14.6515 13.6206 14.5776 13.9085 14.4337 14.1627C14.2898 14.417 14.081 14.6285 13.8286 14.7756C13.5761 14.9227 13.2892 15.0001 12.997 15ZM14.912 4C14.645 3.066 14.312 2.4 13.912 2C13.512 1.6 12.846 1.267 11.912 1M1 4C1.209 3.066 1.512 2.4 1.912 2C2.312 1.6 3.008 1.267 4 1M10.412 16.5C9.745 17.5 8.912 18 7.912 18C6.912 18 6.079 17.5 5.412 16.5" fill="white"/>
<path d="M14.912 4C14.645 3.066 14.312 2.4 13.912 2C13.512 1.6 12.846 1.267 11.912 1M1 4C1.209 3.066 1.512 2.4 1.912 2C2.312 1.6 3.008 1.267 4 1M10.412 16.5C9.745 17.5 8.912 18 7.912 18C6.912 18 6.079 17.5 5.412 16.5M12.997 15H2.827C2.53484 15.0001 2.24788 14.9227 1.99545 14.7756C1.74302 14.6285 1.53418 14.417 1.39027 14.1627C1.24635 13.9085 1.17254 13.6206 1.17635 13.3284C1.18017 13.0363 1.26149 12.7504 1.412 12.5C2.39343 10.8643 2.9119 8.99257 2.912 7.085V6C2.912 4.93913 3.33343 3.92172 4.08357 3.17157C4.83372 2.42143 5.85113 2 6.912 2H8.912C9.97287 2 10.9903 2.42143 11.7404 3.17157C12.4906 3.92172 12.912 4.93913 12.912 6V7.085C12.912 8.992 13.43 10.865 14.412 12.5C14.5625 12.7504 14.6438 13.0363 14.6476 13.3284C14.6515 13.6206 14.5776 13.9085 14.4337 14.1627C14.2898 14.417 14.081 14.6285 13.8286 14.7756C13.5761 14.9227 13.2892 15.0001 12.997 15Z" stroke="black" stroke-linecap="round" stroke-linejoin="round"/>
<path d="M43.0801 3.56252L43.5 4.21209L43.9199 3.56252C44.752 2.27536 46.1679 1.5001 47.8179 1.5C49.0516 1.50159 50.2393 2.01516 51.119 2.93611C51.9995 3.85789 52.4985 5.11235 52.5 6.42538C52.4998 8.8585 51.0487 11.481 47.9947 14.2171C46.6007 15.4606 45.0954 16.5598 43.5 17.4996C41.9046 16.5599 40.3994 15.4607 39.0055 14.2173C35.9512 11.481 34.5001 8.85837 34.5 6.42511C34.5015 5.11218 35.0006 3.85783 35.881 2.93611C36.7607 2.01516 37.9484 1.50158 39.1821 1.5C40.8321 1.5001 42.248 2.27536 43.0801 3.56252ZM43.2414 17.2603L43.5 17.4165L43.7586 17.2603C44.4806 16.8241 46.6324 15.4594 48.6099 13.557C50.565 11.6762 52.4636 9.16189 52.4636 6.42482V6.42432C52.4624 5.14845 51.9779 3.92087 51.1098 3.01204C50.2409 2.10243 49.0578 1.58631 47.8187 1.58496H47.8182C45.8703 1.58496 44.2087 2.68167 43.5137 4.45885L43.9793 4.64096L43.5139 4.45832C43.5097 4.46884 43.5042 4.47417 43.5013 4.47617L43.7885 4.88545L43.5013 4.47617C43.5008 4.47654 43.5003 4.4768 43.5 4.47699C43.4997 4.4768 43.4992 4.47654 43.4987 4.47617L43.2115 4.88545L43.4987 4.47617C43.4958 4.47417 43.4903 4.46884 43.4861 4.45832L43.0207 4.64096L43.4863 4.45885C42.7913 2.68167 41.1297 1.58496 39.1818 1.58496L39.1813 1.58496C37.9422 1.58631 36.7591 2.10243 35.8902 3.01204C35.0221 3.92087 34.5376 5.14845 34.5364 6.42432V6.42482C34.5364 9.16189 36.435 11.6762 38.3901 13.557C40.3676 15.4594 42.5194 16.8241 43.2414 17.2603Z" fill="black" stroke="#1E1E1E"/>
<path d="M73 1H79C79.2652 1 79.5196 1.13777 79.7071 1.38301C79.8946 1.62825 80 1.96087 80 2.30769V18L76 12.7692L72 18V2.30769C72 1.96087 72.1054 1.62825 72.2929 1.38301C72.4804 1.13777 72.7348 1 73 1Z" fill="white" stroke="black" stroke-linecap="round" stroke-linejoin="round"/>
</svg>
