<svg width="23" height="20" viewBox="0 0 23 20" fill="none" xmlns="http://www.w3.org/2000/svg">
<path d="M17.6094 0H5.39062C2.41347 0 0 2.09867 0 4.6875V15.3125C0 17.9013 2.41347 20 5.39062 20H17.6094C20.5865 20 23 17.9013 23 15.3125V4.6875C23 2.09867 20.5865 0 17.6094 0Z" fill="url(#paint0_radial_277_849)"/>
<path d="M17.6094 0H5.39062C2.41347 0 0 2.09867 0 4.6875V15.3125C0 17.9013 2.41347 20 5.39062 20H17.6094C20.5865 20 23 17.9013 23 15.3125V4.6875C23 2.09867 20.5865 0 17.6094 0Z" fill="url(#paint1_radial_277_849)"/>
<path d="M11.5008 2.1875C9.06083 2.1875 8.75455 2.1968 7.79628 2.23469C6.8398 2.27281 6.18691 2.40445 5.61568 2.59766C5.02469 2.79719 4.52345 3.06414 4.0241 3.49852C3.5243 3.93281 3.2173 4.36867 2.98713 4.88234C2.76431 5.37922 2.61275 5.94719 2.56971 6.77852C2.52686 7.61188 2.51562 7.87828 2.51562 10.0001C2.51562 12.1219 2.52641 12.3873 2.56989 13.2206C2.61391 14.0523 2.7653 14.6201 2.9873 15.1168C3.21695 15.6307 3.52394 16.0666 4.02347 16.5008C4.52273 16.9354 5.02397 17.203 5.61452 17.4025C6.18619 17.5957 6.83918 17.7273 7.79547 17.7655C8.75384 17.8034 9.05984 17.8127 11.4997 17.8127C13.94 17.8127 14.2453 17.8034 15.2035 17.7655C16.16 17.7273 16.8136 17.5957 17.3853 17.4025C17.976 17.203 18.4765 16.9354 18.9757 16.5008C19.4755 16.0666 19.7824 15.6307 20.0127 15.117C20.2335 14.6201 20.3852 14.0522 20.4301 13.2208C20.4731 12.3875 20.4844 12.1219 20.4844 10.0001C20.4844 7.87828 20.4731 7.61203 20.4301 6.77867C20.3852 5.94695 20.2335 5.3793 20.0127 4.88258C19.7824 4.36867 19.4755 3.93281 18.9757 3.49852C18.476 3.06398 17.9762 2.79703 17.3848 2.59773C16.812 2.40445 16.1588 2.27273 15.2023 2.23469C14.2439 2.1968 13.9388 2.1875 11.498 2.1875H11.5008ZM10.6948 3.59539C10.9341 3.59508 11.201 3.59539 11.5008 3.59539C13.8997 3.59539 14.184 3.60289 15.1313 3.64031C16.0073 3.67516 16.4827 3.80242 16.7994 3.90938C17.2187 4.05094 17.5176 4.22023 17.8319 4.49375C18.1464 4.76719 18.341 5.02758 18.5042 5.39219C18.6272 5.66719 18.7738 6.08063 18.8136 6.84234C18.8567 7.66594 18.866 7.91328 18.866 9.99828C18.866 12.0833 18.8567 12.3307 18.8136 13.1542C18.7736 13.9159 18.6272 14.3294 18.5042 14.6045C18.3414 14.9691 18.1464 15.2287 17.8319 15.502C17.5175 15.7754 17.2189 15.9446 16.7994 16.0863C16.4831 16.1937 16.0073 16.3206 15.1313 16.3555C14.1842 16.3929 13.8997 16.401 11.5008 16.401C9.1018 16.401 8.81745 16.3929 7.8704 16.3555C6.99443 16.3203 6.51897 16.193 6.202 16.0861C5.78279 15.9445 5.48325 15.7752 5.1688 15.5018C4.85435 15.2284 4.65975 14.9686 4.4965 14.6038C4.3735 14.3287 4.22697 13.9153 4.18708 13.1536C4.14404 12.33 4.13542 12.0827 4.13542 9.99633C4.13542 7.91008 4.14404 7.66398 4.18708 6.84039C4.22715 6.07867 4.3735 5.66523 4.4965 5.38984C4.65939 5.02523 4.85435 4.76484 5.16889 4.49141C5.48334 4.21797 5.78279 4.04867 6.20209 3.9068C6.51879 3.79938 6.99443 3.67242 7.8704 3.63742C8.69921 3.60484 9.0204 3.59508 10.6948 3.59344V3.59539ZM16.2967 4.89258C15.7015 4.89258 15.2185 5.31211 15.2185 5.82977C15.2185 6.34734 15.7015 6.76727 16.2967 6.76727C16.8919 6.76727 17.3748 6.34734 17.3748 5.82977C17.3748 5.31219 16.8919 4.89227 16.2967 4.89227V4.89258ZM11.5008 5.98797C8.95284 5.98797 6.88697 7.78438 6.88697 10.0001C6.88697 12.2158 8.95284 14.0113 11.5008 14.0113C14.0489 14.0113 16.114 12.2158 16.114 10.0001C16.114 7.78445 14.0487 5.98797 11.5006 5.98797H11.5008ZM11.5008 7.39586C13.1547 7.39586 14.4957 8.56172 14.4957 10.0001C14.4957 11.4383 13.1547 12.6043 11.5008 12.6043C9.84679 12.6043 8.50605 11.4383 8.50605 10.0001C8.50605 8.56172 9.84679 7.39586 11.5008 7.39586Z" fill="white"/>
<defs>
<radialGradient id="paint0_radial_277_849" cx="0" cy="0" r="1" gradientUnits="userSpaceOnUse" gradientTransform="translate(6.10937 21.5404) rotate(-90) scale(19.8215 21.2009)">
<stop stop-color="#FFDD55"/>
<stop offset="0.1" stop-color="#FFDD55"/>
<stop offset="0.5" stop-color="#FF543E"/>
<stop offset="1" stop-color="#C837AB"/>
</radialGradient>
<radialGradient id="paint1_radial_277_849" cx="0" cy="0" r="1" gradientUnits="userSpaceOnUse" gradientTransform="translate(-3.85259 1.4407) rotate(77.0369) scale(8.91518 41.7424)">
<stop stop-color="#3771C8"/>
<stop offset="0.128" stop-color="#3771C8"/>
<stop offset="1" stop-color="#6600FF" stop-opacity="0"/>
</radialGradient>
</defs>
</svg>
