<svg width="81" height="45" viewBox="0 0 81 45" fill="none" xmlns="http://www.w3.org/2000/svg">
<path d="M14.912 8.57279C14.645 6.20973 14.312 4.52473 13.912 3.51271C13.512 2.50069 12.846 1.65819 11.912 0.982666M1 8.57279C1.209 6.20973 1.512 4.52473 1.912 3.51271C2.312 2.50069 3.008 1.65819 4 0.982666M10.412 40.1983C9.745 42.7284 8.912 43.9934 7.912 43.9934C6.912 43.9934 6.079 42.7284 5.412 40.1983M12.997 36.4033H2.827C2.53484 36.4036 2.24788 36.2077 1.99545 35.8355C1.74302 35.4633 1.53418 34.9283 1.39027 34.285C1.24635 33.6417 1.17254 32.9133 1.17635 32.1741C1.18017 31.435 1.26149 30.7117 1.412 30.0782C2.39343 25.9397 2.9119 21.2042 2.912 16.378V13.6329C2.912 10.9488 3.33343 8.37474 4.08357 6.47684C4.83372 4.57894 5.85113 3.51271 6.912 3.51271H8.912C9.97287 3.51271 10.9903 4.57894 11.7404 6.47684C12.4906 8.37474 12.912 10.9488 12.912 13.6329V16.378C12.912 21.2028 13.43 25.9415 14.412 30.0782C14.5625 30.7117 14.6438 31.435 14.6476 32.1741C14.6515 32.9133 14.5776 33.6417 14.4337 34.285C14.2898 34.9283 14.081 35.4633 13.8286 35.8355C13.5761 36.2077 13.2892 36.4036 12.997 36.4033Z" stroke="black" stroke-linecap="round" stroke-linejoin="round"/>
<path d="M47.8182 0.982666C46.0045 0.982666 44.4275 3.14893 43.5 6.7792C42.5725 3.14893 40.9955 0.982666 39.1818 0.982666C37.808 0.986904 36.4909 2.43429 35.5195 5.00731C34.5481 7.58034 34.0016 11.0689 34 14.7077C34 21.3872 35.5718 28.3389 38.6723 35.3661C40.093 38.5727 41.6277 41.4071 43.2547 43.8299C43.3301 43.9372 43.4144 43.9934 43.5 43.9934C43.5856 43.9934 43.6699 43.9372 43.7453 43.8299C45.3723 41.4071 46.907 38.5727 48.3277 35.3661C51.4282 28.3389 53 21.3872 53 14.7077C52.9984 11.0689 52.4519 7.58034 51.4805 5.00731C50.5091 2.43429 49.192 0.986904 47.8182 0.982666ZM43.5 41.0392C42.0828 38.8729 35.0364 27.4537 35.0364 14.7077C35.0375 11.7965 35.4746 9.00549 36.2518 6.94699C37.029 4.88849 38.0827 3.7307 39.1818 3.72767C40.9333 3.72767 42.404 6.20504 43.0207 10.1944C43.0597 10.4462 43.1261 10.6615 43.2115 10.813C43.2968 10.9645 43.3973 11.0454 43.5 11.0454C43.6027 11.0454 43.7032 10.9645 43.7885 10.813C43.8739 10.6615 43.9403 10.4462 43.9793 10.1944C44.596 6.20504 46.0667 3.72767 47.8182 3.72767C48.9173 3.7307 49.971 4.88849 50.7482 6.94699C51.5254 9.00549 51.9625 11.7965 51.9636 14.7077C51.9636 27.4537 44.9172 38.8729 43.5 41.0392Z" fill="black"/>
<path d="M73 0.982666H79C79.2652 0.982666 79.5196 1.33124 79.7071 1.95171C79.8946 2.57218 80 3.41371 80 4.29118V43.9934L76 30.7593L72 43.9934V4.29118C72 3.41371 72.1054 2.57218 72.2929 1.95171C72.4804 1.33124 72.7348 0.982666 73 0.982666Z" stroke="black" stroke-linecap="round" stroke-linejoin="round"/>
</svg>
