<svg width="81" height="45" viewBox="0 0 81 45" fill="none" xmlns="http://www.w3.org/2000/svg">
<path d="M14.912 8.31132C14.645 5.94826 14.312 4.26325 13.912 3.25123C13.512 2.23922 12.846 1.39671 11.912 0.721191M1 8.31132C1.209 5.94826 1.512 4.26325 1.912 3.25123C2.312 2.23922 3.008 1.39671 4 0.721191M10.412 39.9369C9.745 42.4669 8.912 43.7319 7.912 43.7319C6.912 43.7319 6.079 42.4669 5.412 39.9369M12.997 36.1418H2.827C2.53484 36.1421 2.24788 35.9462 1.99545 35.574C1.74302 35.2019 1.53418 34.6668 1.39027 34.0235C1.24635 33.3802 1.17254 32.6518 1.17635 31.9127C1.18017 31.1735 1.26149 30.4502 1.412 29.8167C2.39343 25.6782 2.9119 20.9427 2.912 16.1165V13.3714C2.912 10.6874 3.33343 8.11326 4.08357 6.21536C4.83372 4.31746 5.85113 3.25123 6.912 3.25123H8.912C9.97287 3.25123 10.9903 4.31746 11.7404 6.21536C12.4906 8.11326 12.912 10.6874 12.912 13.3714V16.1165C12.912 20.9413 13.43 25.6801 14.412 29.8167C14.5625 30.4502 14.6438 31.1735 14.6476 31.9127C14.6515 32.6518 14.5776 33.3802 14.4337 34.0235C14.2898 34.6668 14.081 35.2019 13.8286 35.574C13.5761 35.9462 13.2892 36.1421 12.997 36.1418Z" stroke="black" stroke-linecap="round" stroke-linejoin="round"/>
<path d="M47.8182 0.721191C46.0045 0.721191 44.4275 2.88746 43.5 6.51773C42.5725 2.88746 40.9955 0.721191 39.1818 0.721191C37.808 0.725429 36.4909 2.17282 35.5195 4.74584C34.5481 7.31886 34.0016 10.8074 34 14.4462C34 21.1257 35.5718 28.0775 38.6723 35.1047C40.093 38.3112 41.6277 41.1457 43.2547 43.5684C43.3301 43.6757 43.4144 43.7319 43.5 43.7319C43.5856 43.7319 43.6699 43.6757 43.7453 43.5684C45.3723 41.1457 46.907 38.3112 48.3277 35.1047C51.4282 28.0775 53 21.1257 53 14.4462C52.9984 10.8074 52.4519 7.31886 51.4805 4.74584C50.5091 2.17282 49.192 0.725429 47.8182 0.721191ZM43.5 40.7777C42.0828 38.6114 35.0364 27.1922 35.0364 14.4462C35.0375 11.5351 35.4746 8.74401 36.2518 6.68551C37.029 4.62702 38.0827 3.46922 39.1818 3.4662C40.9333 3.4662 42.404 5.94356 43.0207 9.93297C43.0597 10.1847 43.1261 10.4 43.2115 10.5515C43.2968 10.7031 43.3973 10.784 43.5 10.784C43.6027 10.784 43.7032 10.7031 43.7885 10.5515C43.8739 10.4 43.9403 10.1847 43.9793 9.93297C44.596 5.94356 46.0667 3.4662 47.8182 3.4662C48.9173 3.46922 49.971 4.62702 50.7482 6.68551C51.5254 8.74401 51.9625 11.5351 51.9636 14.4462C51.9636 27.1922 44.9172 38.6114 43.5 40.7777Z" fill="black"/>
<path d="M73 0.721191H79C79.2652 0.721191 79.5196 1.06977 79.7071 1.69023C79.8946 2.3107 80 3.15224 80 4.02971V43.7319L76 30.4978L72 43.7319V4.02971C72 3.15224 72.1054 2.3107 72.2929 1.69023C72.4804 1.06977 72.7348 0.721191 73 0.721191Z" stroke="black" stroke-linecap="round" stroke-linejoin="round"/>
</svg>
