<svg width="81" height="45" viewBox="0 0 81 45" fill="none" xmlns="http://www.w3.org/2000/svg">
<path d="M14.912 8.19975C14.645 5.83669 14.312 4.15168 13.912 3.13966C13.512 2.12764 12.846 1.28514 11.912 0.609619M1 8.19975C1.209 5.83669 1.512 4.15168 1.912 3.13966C2.312 2.12764 3.008 1.28514 4 0.609619M10.412 39.8253C9.745 42.3553 8.912 43.6203 7.912 43.6203C6.912 43.6203 6.079 42.3553 5.412 39.8253M12.997 36.0302H2.827C2.53484 36.0306 2.24788 35.8346 1.99545 35.4625C1.74302 35.0903 1.53418 34.5552 1.39027 33.9119C1.24635 33.2686 1.17254 32.5402 1.17635 31.8011C1.18017 31.062 1.26149 30.3387 1.412 29.7051C2.39343 25.5666 2.9119 20.8312 2.912 16.0049V13.2598C2.912 10.5758 3.33343 8.00169 4.08357 6.10379C4.83372 4.20589 5.85113 3.13966 6.912 3.13966H8.912C9.97287 3.13966 10.9903 4.20589 11.7404 6.10379C12.4906 8.00169 12.912 10.5758 12.912 13.2598V16.0049C12.912 20.8297 13.43 25.5685 14.412 29.7051C14.5625 30.3387 14.6438 31.062 14.6476 31.8011C14.6515 32.5402 14.5776 33.2686 14.4337 33.9119C14.2898 34.5552 14.081 35.0903 13.8286 35.4625C13.5761 35.8346 13.2892 36.0306 12.997 36.0302Z" stroke="black" stroke-linecap="round" stroke-linejoin="round"/>
<path d="M47.8182 0.609619C46.0045 0.609619 44.4275 2.77588 43.5 6.40615C42.5725 2.77588 40.9955 0.609619 39.1818 0.609619C37.808 0.613857 36.4909 2.06124 35.5195 4.63427C34.5481 7.20729 34.0016 10.6958 34 14.3346C34 21.0142 35.5718 27.9659 38.6723 34.9931C40.093 38.1996 41.6277 41.0341 43.2547 43.4569C43.3301 43.5642 43.4144 43.6203 43.5 43.6203C43.5856 43.6203 43.6699 43.5642 43.7453 43.4569C45.3723 41.0341 46.907 38.1996 48.3277 34.9931C51.4282 27.9659 53 21.0142 53 14.3346C52.9984 10.6958 52.4519 7.20729 51.4805 4.63427C50.5091 2.06124 49.192 0.613857 47.8182 0.609619ZM43.5 40.6661C42.0828 38.4998 35.0364 27.0806 35.0364 14.3346C35.0375 11.4235 35.4746 8.63244 36.2518 6.57394C37.029 4.51544 38.0827 3.35765 39.1818 3.35462C40.9333 3.35462 42.404 5.83199 43.0207 9.8214C43.0597 10.0731 43.1261 10.2884 43.2115 10.44C43.2968 10.5915 43.3973 10.6724 43.5 10.6724C43.6027 10.6724 43.7032 10.5915 43.7885 10.44C43.8739 10.2884 43.9403 10.0731 43.9793 9.8214C44.596 5.83199 46.0667 3.35462 47.8182 3.35462C48.9173 3.35765 49.971 4.51544 50.7482 6.57394C51.5254 8.63244 51.9625 11.4235 51.9636 14.3346C51.9636 27.0806 44.9172 38.4998 43.5 40.6661Z" fill="black"/>
<path d="M73 0.609619H79C79.2652 0.609619 79.5196 0.958195 79.7071 1.57866C79.8946 2.19913 80 3.04066 80 3.91814V43.6203L76 30.3863L72 43.6203V3.91814C72 3.04066 72.1054 2.19913 72.2929 1.57866C72.4804 0.958195 72.7348 0.609619 73 0.609619Z" stroke="black" stroke-linecap="round" stroke-linejoin="round"/>
</svg>
