<svg width="81" height="19" viewBox="0 0 81 19" fill="none" xmlns="http://www.w3.org/2000/svg">
<path d="M14.912 4.03085C14.645 3.08724 14.312 2.4144 13.912 2.01028C13.512 1.60617 12.846 1.26975 11.912 1M1 4.03085C1.209 3.08724 1.512 2.4144 1.912 2.01028C2.312 1.60617 3.008 1.26975 4 1M10.412 16.6594C9.745 17.6697 8.912 18.1748 7.912 18.1748C6.912 18.1748 6.079 17.6697 5.412 16.6594M12.997 15.144H2.827C2.53484 15.1441 2.24788 15.0659 1.99545 14.9172C1.74302 14.7686 1.53418 14.555 1.39027 14.2981C1.24635 14.0412 1.17254 13.7503 1.17635 13.4552C1.18017 13.1601 1.26149 12.8712 1.412 12.6183C2.39343 10.9657 2.9119 9.07476 2.912 7.14757V6.05141C2.912 4.97964 3.33343 3.95176 4.08357 3.1939C4.83372 2.43604 5.85113 2.01028 6.912 2.01028H8.912C9.97287 2.01028 10.9903 2.43604 11.7404 3.1939C12.4906 3.95176 12.912 4.97964 12.912 6.05141V7.14757C12.912 9.07418 13.43 10.9664 14.412 12.6183C14.5625 12.8712 14.6438 13.1601 14.6476 13.4552C14.6515 13.7503 14.5776 14.0412 14.4337 14.2981C14.2898 14.555 14.081 14.7686 13.8286 14.9172C13.5761 15.0659 13.2892 15.1441 12.997 15.144Z" stroke="black" stroke-linecap="round" stroke-linejoin="round"/>
<path d="M47.8182 1C46.0045 1 44.4275 1.86502 43.5 3.31464C42.5725 1.86502 40.9955 1 39.1818 1C37.808 1.00169 36.4909 1.57965 35.5195 2.6071C34.5481 3.63455 34.0016 5.02757 34 6.4806C34 9.14783 35.5718 11.9238 38.6723 14.7298C40.093 16.0102 41.6277 17.1421 43.2547 18.1095C43.3301 18.1524 43.4144 18.1748 43.5 18.1748C43.5856 18.1748 43.6699 18.1524 43.7453 18.1095C45.3723 17.1421 46.907 16.0102 48.3277 14.7298C51.4282 11.9238 53 9.14783 53 6.4806C52.9984 5.02757 52.4519 3.63455 51.4805 2.6071C50.5091 1.57965 49.192 1.00169 47.8182 1ZM43.5 16.9951C42.0828 16.1301 35.0364 11.5703 35.0364 6.4806C35.0375 5.31814 35.4746 4.20363 36.2518 3.38164C37.029 2.55965 38.0827 2.09733 39.1818 2.09612C40.9333 2.09612 42.404 3.08537 43.0207 4.6784C43.0597 4.77892 43.1261 4.86489 43.2115 4.9254C43.2968 4.98591 43.3973 5.01821 43.5 5.01821C43.6027 5.01821 43.7032 4.98591 43.7885 4.9254C43.8739 4.86489 43.9403 4.77892 43.9793 4.6784C44.596 3.08537 46.0667 2.09612 47.8182 2.09612C48.9173 2.09733 49.971 2.55965 50.7482 3.38164C51.5254 4.20363 51.9625 5.31814 51.9636 6.4806C51.9636 11.5703 44.9172 16.1301 43.5 16.9951Z" fill="black"/>
<path d="M73 1H79C79.2652 1 79.5196 1.13919 79.7071 1.38695C79.8946 1.63471 80 1.97075 80 2.32114V18.1748L76 12.8903L72 18.1748V2.32114C72 1.97075 72.1054 1.63471 72.2929 1.38695C72.4804 1.13919 72.7348 1 73 1Z" stroke="black" stroke-linecap="round" stroke-linejoin="round"/>
</svg>
