<svg width="81" height="19" viewBox="0 0 81 19" fill="none" xmlns="http://www.w3.org/2000/svg">
<path d="M14.912 4C14.645 3.066 14.312 2.4 13.912 2C13.512 1.6 12.846 1.267 11.912 1M1 4C1.209 3.066 1.512 2.4 1.912 2C2.312 1.6 3.008 1.267 4 1M10.412 16.5C9.745 17.5 8.912 18 7.912 18C6.912 18 6.079 17.5 5.412 16.5M12.997 15H2.827C2.53484 15.0001 2.24788 14.9227 1.99545 14.7756C1.74302 14.6285 1.53418 14.417 1.39027 14.1627C1.24635 13.9085 1.17254 13.6206 1.17635 13.3284C1.18017 13.0363 1.26149 12.7504 1.412 12.5C2.39343 10.8643 2.9119 8.99257 2.912 7.085V6C2.912 4.93913 3.33343 3.92172 4.08357 3.17157C4.83372 2.42143 5.85113 2 6.912 2H8.912C9.97287 2 10.9903 2.42143 11.7404 3.17157C12.4906 3.92172 12.912 4.93913 12.912 6V7.085C12.912 8.992 13.43 10.865 14.412 12.5C14.5625 12.7504 14.6438 13.0363 14.6476 13.3284C14.6515 13.6206 14.5776 13.9085 14.4337 14.1627C14.2898 14.417 14.081 14.6285 13.8286 14.7756C13.5761 14.9227 13.2892 15.0001 12.997 15Z" stroke="black" stroke-linecap="round" stroke-linejoin="round"/>
<path d="M47.8182 1C46.0045 1 44.4275 1.85622 43.5 3.29108C42.5725 1.85622 40.9955 1 39.1818 1C37.808 1.00168 36.4909 1.57375 35.5195 2.59074C34.5481 3.60773 34.0016 4.98658 34 6.42482C34 9.0649 35.5718 11.8126 38.6723 14.5901C40.093 15.8575 41.6277 16.9778 43.2547 17.9354C43.3301 17.9778 43.4144 18 43.5 18C43.5856 18 43.6699 17.9778 43.7453 17.9354C45.3723 16.9778 46.907 15.8575 48.3277 14.5901C51.4282 11.8126 53 9.0649 53 6.42482C52.9984 4.98658 52.4519 3.60773 51.4805 2.59074C50.5091 1.57375 49.192 1.00168 47.8182 1ZM43.5 16.8323C42.0828 15.9761 35.0364 11.4627 35.0364 6.42482C35.0375 5.27419 35.4746 4.17102 36.2518 3.3574C37.029 2.54378 38.0827 2.08616 39.1818 2.08496C40.9333 2.08496 42.404 3.06414 43.0207 4.64096C43.0597 4.74045 43.1261 4.82556 43.2115 4.88545C43.2968 4.94534 43.3973 4.97731 43.5 4.97731C43.6027 4.97731 43.7032 4.94534 43.7885 4.88545C43.8739 4.82556 43.9403 4.74045 43.9793 4.64096C44.596 3.06414 46.0667 2.08496 47.8182 2.08496C48.9173 2.08616 49.971 2.54378 50.7482 3.3574C51.5254 4.17102 51.9625 5.27419 51.9636 6.42482C51.9636 11.4627 44.9172 15.9761 43.5 16.8323Z" fill="black"/>
<path d="M73 1H79C79.2652 1 79.5196 1.13777 79.7071 1.38301C79.8946 1.62825 80 1.96087 80 2.30769V18L76 12.7692L72 18V2.30769C72 1.96087 72.1054 1.62825 72.2929 1.38301C72.4804 1.13777 72.7348 1 73 1Z" stroke="black" stroke-linecap="round" stroke-linejoin="round"/>
</svg>
