<svg width="81" height="45" viewBox="0 0 81 45" fill="none" xmlns="http://www.w3.org/2000/svg">
<path d="M14.912 8.25541C14.645 5.89235 14.312 4.20734 13.912 3.19533C13.512 2.18331 12.846 1.3408 11.912 0.665283M1 8.25541C1.209 5.89235 1.512 4.20734 1.912 3.19533C2.312 2.18331 3.008 1.3408 4 0.665283M10.412 39.8809C9.745 42.411 8.912 43.676 7.912 43.676C6.912 43.676 6.079 42.411 5.412 39.8809M12.997 36.0859H2.827C2.53484 36.0862 2.24788 35.8903 1.99545 35.5181C1.74302 35.146 1.53418 34.6109 1.39027 33.9676C1.24635 33.3243 1.17254 32.5959 1.17635 31.8567C1.18017 31.1176 1.26149 30.3943 1.412 29.7608C2.39343 25.6223 2.9119 20.8868 2.912 16.0606V13.3155C2.912 10.6315 3.33343 8.05736 4.08357 6.15946C4.83372 4.26156 5.85113 3.19533 6.912 3.19533H8.912C9.97287 3.19533 10.9903 4.26156 11.7404 6.15946C12.4906 8.05736 12.912 10.6315 12.912 13.3155V16.0606C12.912 20.8854 13.43 25.6242 14.412 29.7608C14.5625 30.3943 14.6438 31.1176 14.6476 31.8567C14.6515 32.5959 14.5776 33.3243 14.4337 33.9676C14.2898 34.6109 14.081 35.146 13.8286 35.5181C13.5761 35.8903 13.2892 36.0862 12.997 36.0859Z" stroke="black" stroke-linecap="round" stroke-linejoin="round"/>
<path d="M47.8182 0.665283C46.0045 0.665283 44.4275 2.83155 43.5 6.46182C42.5725 2.83155 40.9955 0.665283 39.1818 0.665283C37.808 0.669521 36.4909 2.11691 35.5195 4.68993C34.5481 7.26295 34.0016 10.7515 34 14.3903C34 21.0698 35.5718 28.0215 38.6723 35.0488C40.093 38.2553 41.6277 41.0898 43.2547 43.5125C43.3301 43.6198 43.4144 43.676 43.5 43.676C43.5856 43.676 43.6699 43.6198 43.7453 43.5125C45.3723 41.0898 46.907 38.2553 48.3277 35.0488C51.4282 28.0215 53 21.0698 53 14.3903C52.9984 10.7515 52.4519 7.26295 51.4805 4.68993C50.5091 2.11691 49.192 0.669521 47.8182 0.665283ZM43.5 40.7218C42.0828 38.5555 35.0364 27.1363 35.0364 14.3903C35.0375 11.4792 35.4746 8.6881 36.2518 6.62961C37.029 4.57111 38.0827 3.41332 39.1818 3.41029C40.9333 3.41029 42.404 5.88765 43.0207 9.87706C43.0597 10.1288 43.1261 10.3441 43.2115 10.4956C43.2968 10.6472 43.3973 10.7281 43.5 10.7281C43.6027 10.7281 43.7032 10.6472 43.7885 10.4956C43.8739 10.3441 43.9403 10.1288 43.9793 9.87706C44.596 5.88765 46.0667 3.41029 47.8182 3.41029C48.9173 3.41332 49.971 4.57111 50.7482 6.62961C51.5254 8.6881 51.9625 11.4792 51.9636 14.3903C51.9636 27.1363 44.9172 38.5555 43.5 40.7218Z" fill="black"/>
<path d="M73 0.665283H79C79.2652 0.665283 79.5196 1.01386 79.7071 1.63433C79.8946 2.25479 80 3.09633 80 3.9738V43.676L76 30.4419L72 43.676V3.9738C72 3.09633 72.1054 2.25479 72.2929 1.63433C72.4804 1.01386 72.7348 0.665283 73 0.665283Z" stroke="black" stroke-linecap="round" stroke-linejoin="round"/>
</svg>
