<svg width="81" height="45" viewBox="0 0 81 45" fill="none" xmlns="http://www.w3.org/2000/svg">
<path d="M14.912 8.35624C14.645 5.99318 14.312 4.30817 13.912 3.29616C13.512 2.28414 12.846 1.44163 11.912 0.766113M1 8.35624C1.209 5.99318 1.512 4.30817 1.912 3.29616C2.312 2.28414 3.008 1.44163 4 0.766113M10.412 39.9818C9.745 42.5118 8.912 43.7768 7.912 43.7768C6.912 43.7768 6.079 42.5118 5.412 39.9818M12.997 36.1867H2.827C2.53484 36.1871 2.24788 35.9911 1.99545 35.619C1.74302 35.2468 1.53418 34.7117 1.39027 34.0684C1.24635 33.4251 1.17254 32.6967 1.17635 31.9576C1.18017 31.2185 1.26149 30.4952 1.412 29.8616C2.39343 25.7231 2.9119 20.9877 2.912 16.1614V13.4163C2.912 10.7323 3.33343 8.15819 4.08357 6.26029C4.83372 4.36239 5.85113 3.29616 6.912 3.29616H8.912C9.97287 3.29616 10.9903 4.36239 11.7404 6.26029C12.4906 8.15819 12.912 10.7323 12.912 13.4163V16.1614C12.912 20.9862 13.43 25.725 14.412 29.8616C14.5625 30.4952 14.6438 31.2185 14.6476 31.9576C14.6515 32.6967 14.5776 33.4251 14.4337 34.0684C14.2898 34.7117 14.081 35.2468 13.8286 35.619C13.5761 35.9911 13.2892 36.1871 12.997 36.1867Z" stroke="black" stroke-linecap="round" stroke-linejoin="round"/>
<path d="M47.8182 0.766113C46.0045 0.766113 44.4275 2.93238 43.5 6.56265C42.5725 2.93238 40.9955 0.766113 39.1818 0.766113C37.808 0.770351 36.4909 2.21774 35.5195 4.79076C34.5481 7.36378 34.0016 10.8523 34 14.4911C34 21.1707 35.5718 28.1224 38.6723 35.1496C40.093 38.3561 41.6277 41.1906 43.2547 43.6133C43.3301 43.7207 43.4144 43.7768 43.5 43.7768C43.5856 43.7768 43.6699 43.7207 43.7453 43.6133C45.3723 41.1906 46.907 38.3561 48.3277 35.1496C51.4282 28.1224 53 21.1707 53 14.4911C52.9984 10.8523 52.4519 7.36378 51.4805 4.79076C50.5091 2.21774 49.192 0.770351 47.8182 0.766113ZM43.5 40.8226C42.0828 38.6563 35.0364 27.2371 35.0364 14.4911C35.0375 11.58 35.4746 8.78893 36.2518 6.73044C37.029 4.67194 38.0827 3.51415 39.1818 3.51112C40.9333 3.51112 42.404 5.98848 43.0207 9.97789C43.0597 10.2296 43.1261 10.4449 43.2115 10.5965C43.2968 10.748 43.3973 10.8289 43.5 10.8289C43.6027 10.8289 43.7032 10.748 43.7885 10.5965C43.8739 10.4449 43.9403 10.2296 43.9793 9.97789C44.596 5.98848 46.0667 3.51112 47.8182 3.51112C48.9173 3.51415 49.971 4.67194 50.7482 6.73044C51.5254 8.78893 51.9625 11.58 51.9636 14.4911C51.9636 27.2371 44.9172 38.6563 43.5 40.8226Z" fill="black"/>
<path d="M73 0.766113H79C79.2652 0.766113 79.5196 1.11469 79.7071 1.73516C79.8946 2.35562 80 3.19716 80 4.07463V43.7768L76 30.5428L72 43.7768V4.07463C72 3.19716 72.1054 2.35562 72.2929 1.73516C72.4804 1.11469 72.7348 0.766113 73 0.766113Z" stroke="black" stroke-linecap="round" stroke-linejoin="round"/>
</svg>
