<svg width="81" height="45" viewBox="0 0 81 45" fill="none" xmlns="http://www.w3.org/2000/svg">
<path d="M14.912 9.03666C14.645 6.6736 14.312 4.98859 13.912 3.97658C13.512 2.96456 12.846 2.12205 11.912 1.44653M1 9.03666C1.209 6.6736 1.512 4.98859 1.912 3.97658C2.312 2.96456 3.008 2.12205 4 1.44653M10.412 40.6622C9.745 43.1922 8.912 44.4573 7.912 44.4573C6.912 44.4573 6.079 43.1922 5.412 40.6622M12.997 36.8671H2.827C2.53484 36.8675 2.24788 36.6716 1.99545 36.2994C1.74302 35.9272 1.53418 35.3921 1.39027 34.7488C1.24635 34.1056 1.17254 33.3771 1.17635 32.638C1.18017 31.8989 1.26149 31.1756 1.412 30.542C2.39343 26.4035 2.9119 21.6681 2.912 16.8418V14.0967C2.912 11.4127 3.33343 8.83861 4.08357 6.94071C4.83372 5.04281 5.85113 3.97658 6.912 3.97658H8.912C9.97287 3.97658 10.9903 5.04281 11.7404 6.94071C12.4906 8.83861 12.912 11.4127 12.912 14.0967V16.8418C12.912 21.6666 13.43 26.4054 14.412 30.542C14.5625 31.1756 14.6438 31.8989 14.6476 32.638C14.6515 33.3771 14.5776 34.1056 14.4337 34.7488C14.2898 35.3921 14.081 35.9272 13.8286 36.2994C13.5761 36.6716 13.2892 36.8675 12.997 36.8671Z" stroke="black" stroke-linecap="round" stroke-linejoin="round"/>
<path d="M47.8182 1.44653C46.0045 1.44653 44.4275 3.6128 43.5 7.24307C42.5725 3.6128 40.9955 1.44653 39.1818 1.44653C37.808 1.45077 36.4909 2.89816 35.5195 5.47118C34.5481 8.0442 34.0016 11.5328 34 15.1716C34 21.8511 35.5718 28.8028 38.6723 35.83C40.093 39.0365 41.6277 41.871 43.2547 44.2938C43.3301 44.4011 43.4144 44.4573 43.5 44.4573C43.5856 44.4573 43.6699 44.4011 43.7453 44.2938C45.3723 41.871 46.907 39.0365 48.3277 35.83C51.4282 28.8028 53 21.8511 53 15.1716C52.9984 11.5328 52.4519 8.0442 51.4805 5.47118C50.5091 2.89816 49.192 1.45077 47.8182 1.44653ZM43.5 41.503C42.0828 39.3368 35.0364 27.9175 35.0364 15.1716C35.0375 12.2604 35.4746 9.46935 36.2518 7.41086C37.029 5.35236 38.0827 4.19457 39.1818 4.19154C40.9333 4.19154 42.404 6.6689 43.0207 10.6583C43.0597 10.91 43.1261 11.1254 43.2115 11.2769C43.2968 11.4284 43.3973 11.5093 43.5 11.5093C43.6027 11.5093 43.7032 11.4284 43.7885 11.2769C43.8739 11.1254 43.9403 10.91 43.9793 10.6583C44.596 6.6689 46.0667 4.19154 47.8182 4.19154C48.9173 4.19457 49.971 5.35236 50.7482 7.41086C51.5254 9.46935 51.9625 12.2604 51.9636 15.1716C51.9636 27.9175 44.9172 39.3368 43.5 41.503Z" fill="black"/>
<path d="M73 1.44653H79C79.2652 1.44653 79.5196 1.79511 79.7071 2.41558C79.8946 3.03604 80 3.87758 80 4.75505V44.4573L76 31.2232L72 44.4573V4.75505C72 3.87758 72.1054 3.03604 72.2929 2.41558C72.4804 1.79511 72.7348 1.44653 73 1.44653Z" stroke="black" stroke-linecap="round" stroke-linejoin="round"/>
</svg>
