<svg width="22" height="20" viewBox="0 0 22 20" fill="none" xmlns="http://www.w3.org/2000/svg">
<g clip-path="url(#clip0_277_854)">
<path d="M22 10C22 4.47719 17.0751 0 11 0C4.92491 0 0 4.47719 0 10C0 14.9913 4.02256 19.1284 9.28125 19.8785V12.8906H6.48828V10H9.28125V7.79688C9.28125 5.29063 10.9235 3.90625 13.4362 3.90625C14.6396 3.90625 15.8984 4.10156 15.8984 4.10156V6.5625H14.5114C13.1449 6.5625 12.7188 7.33336 12.7188 8.12422V10H15.7695L15.2818 12.8906H12.7188V19.8785C17.9774 19.1284 22 14.9913 22 10Z" fill="#1877F2"/>
<path d="M15.2818 12.8906L15.7695 10H12.7188V8.12422C12.7188 7.33328 13.1449 6.5625 14.5114 6.5625H15.8984V4.10156C15.8984 4.10156 14.6396 3.90625 13.4361 3.90625C10.9235 3.90625 9.28125 5.29063 9.28125 7.79688V10H6.48828V12.8906H9.28125V19.8785C9.84983 19.9595 10.4245 20.0001 11 20C11.5755 20.0002 12.1502 19.9595 12.7188 19.8785V12.8906H15.2818Z" fill="white"/>
</g>
<defs>
<clipPath id="clip0_277_854">
<rect width="22" height="20" fill="white"/>
</clipPath>
</defs>
</svg>
