<svg width="200" height="200" viewBox="0 0 200 200" fill="none" xmlns="http://www.w3.org/2000/svg">
<path d="M46.7999 166.667C42.961 166.667 39.7583 165.383 37.1916 162.817C34.6249 160.25 33.3388 157.044 33.3333 153.2V46.8C33.3333 42.9611 34.6194 39.7583 37.1916 37.1917C39.7638 34.625 42.9666 33.3389 46.7999 33.3333H153.208C157.042 33.3333 160.244 34.6195 162.817 37.1917C165.389 39.7639 166.672 42.9667 166.667 46.8V153.208C166.667 157.042 165.383 160.244 162.817 162.817C160.25 165.389 157.044 166.672 153.2 166.667H46.7999ZM62.4999 137.5H138.783L115.225 106.083L93.4333 133.65L78.8499 116.025L62.4999 137.5Z" fill="black" fill-opacity="0.5"/>
</svg>
