<svg width="50" height="50" viewBox="0 0 50 50" fill="none" xmlns="http://www.w3.org/2000/svg">
<path d="M39.5833 8.3335C41.1775 8.33341 42.7114 8.94251 43.8713 10.0362C45.0312 11.1298 45.7294 12.6254 45.8229 14.2168L45.8333 14.5835V35.4168C45.8334 37.011 45.2243 38.545 44.1306 39.7049C43.037 40.8648 41.5414 41.5629 39.95 41.6564L39.5833 41.6668H10.4166C8.82244 41.6669 7.28847 41.0578 6.12858 39.9642C4.96869 38.8705 4.27057 37.3749 4.17704 35.7835L4.16663 35.4168V14.5835C4.16654 12.9893 4.77564 11.4553 5.8693 10.2955C6.96296 9.13556 8.45852 8.43744 10.05 8.34391L10.4166 8.3335H39.5833ZM25.7375 18.7335L25 20.0085L24.2625 18.7335C23.9069 18.1173 23.4333 17.5772 22.869 17.1441C22.3046 16.7109 21.6605 16.3932 20.9733 16.209C20.2861 16.0248 19.5694 15.9778 18.864 16.0707C18.1587 16.1635 17.4786 16.3944 16.8625 16.7502L15.627 17.4647C14.9837 17.8359 14.4198 18.3302 13.9676 18.9193C13.5153 19.5084 13.1836 20.1809 12.9913 20.8982C12.799 21.6156 12.7499 22.3638 12.8468 23.1002C12.9438 23.8365 13.1848 24.5466 13.5562 25.1897C14.2047 26.313 15.159 27.229 16.3079 27.8309C17.4568 28.4328 18.7531 28.696 20.0458 28.5897L18.0291 32.0835C17.7572 32.5617 17.6855 33.1281 17.8297 33.659C17.9738 34.19 18.3221 34.6423 18.7985 34.9174C19.2749 35.1925 19.8408 35.2679 20.3727 35.1273C20.9046 34.9867 21.3592 34.6414 21.6375 34.1668L25 28.3439L28.3625 34.1668C28.4983 34.4057 28.68 34.6153 28.8971 34.7836C29.1142 34.952 29.3625 35.0757 29.6277 35.1477C29.8928 35.2197 30.1696 35.2385 30.4421 35.2031C30.7145 35.1677 30.9773 35.0787 31.2152 34.9413C31.4532 34.804 31.6616 34.6209 31.8285 34.4026C31.9954 34.1844 32.1174 33.9353 32.1877 33.6696C32.2579 33.404 32.2749 33.1271 32.2377 32.8549C32.2004 32.5827 32.1097 32.3205 31.9708 32.0835L29.9541 28.5897C31.2468 28.696 32.5431 28.4328 33.692 27.8309C34.8409 27.229 35.7952 26.313 36.4437 25.1897C36.8151 24.5466 37.0562 23.8365 37.1531 23.1002C37.25 22.3638 37.2009 21.6156 37.0086 20.8982C36.8163 20.1809 36.4846 19.5084 36.0323 18.9193C35.5801 18.3302 35.0162 17.8359 34.3729 17.4647L33.1375 16.7502C32.5214 16.3944 31.8412 16.1635 31.1359 16.0707C30.4305 15.9778 29.7138 16.0248 29.0266 16.209C28.3395 16.3932 27.6953 16.7109 27.1309 17.1441C26.5666 17.5772 26.0931 18.1173 25.7375 18.7335ZM30.8687 20.271L31.052 20.3585L32.2895 21.0731C32.459 21.1706 32.6076 21.3006 32.7268 21.4557C32.8459 21.6107 32.9334 21.7877 32.9841 21.9766C33.0347 22.1654 33.0477 22.3624 33.0222 22.5563C32.9967 22.7502 32.9332 22.9371 32.8354 23.1064C32.5036 23.6807 31.9705 24.1116 31.3394 24.3156C30.7082 24.5195 30.0239 24.4821 29.4187 24.2106L29.175 24.0856L27.8875 23.3418L29.3458 20.8168C29.4769 20.5895 29.6763 20.4092 29.9156 20.3016C30.1549 20.1939 30.422 20.1642 30.6791 20.2168L30.8687 20.271ZM20.6541 20.8168L22.1125 23.3418L20.8229 24.0856C20.2078 24.4405 19.477 24.5368 18.7911 24.3531C18.1051 24.1695 17.5201 23.7211 17.1645 23.1064C17.0667 22.9371 17.0032 22.7502 16.9777 22.5563C16.9522 22.3624 16.9652 22.1654 17.0159 21.9766C17.0666 21.7877 17.154 21.6107 17.2732 21.4557C17.3923 21.3006 17.5409 21.1706 17.7104 21.0731L18.9458 20.3585C19.088 20.2763 19.2451 20.223 19.4079 20.2016C19.5708 20.1801 19.7363 20.191 19.895 20.2336C20.0536 20.2761 20.2023 20.3496 20.3326 20.4496C20.4629 20.5497 20.5721 20.6745 20.6541 20.8168Z" fill="black"/>
</svg>
