<svg width="50" height="50" viewBox="0 0 50 50" fill="none" xmlns="http://www.w3.org/2000/svg">
<path d="M12.5 30C15.2614 30 17.5 27.7614 17.5 25C17.5 22.2386 15.2614 20 12.5 20C9.73858 20 7.5 22.2386 7.5 25C7.5 27.7614 9.73858 30 12.5 30Z" fill="black"/>
<path d="M25 30C27.7614 30 30 27.7614 30 25C30 22.2386 27.7614 20 25 20C22.2386 20 20 22.2386 20 25C20 27.7614 22.2386 30 25 30Z" fill="black"/>
<path d="M37.5 30C40.2614 30 42.5 27.7614 42.5 25C42.5 22.2386 40.2614 20 37.5 20C34.7386 20 32.5 22.2386 32.5 25C32.5 27.7614 34.7386 30 37.5 30Z" fill="black"/>
</svg>
