<svg width="16" height="45" viewBox="0 0 16 45" fill="none" xmlns="http://www.w3.org/2000/svg">
<path d="M14.912 8.57939C14.645 6.21633 14.312 4.53132 13.912 3.5193C13.512 2.50728 12.846 1.66478 11.912 0.989258M1 8.57939C1.209 6.21633 1.512 4.53132 1.912 3.5193C2.312 2.50728 3.008 1.66478 4 0.989258M10.412 40.2049C9.745 42.735 8.912 44 7.912 44C6.912 44 6.079 42.735 5.412 40.2049M12.997 36.4099H2.827C2.53484 36.4102 2.24788 36.2143 1.99545 35.8421C1.74302 35.4699 1.53418 34.9349 1.39027 34.2916C1.24635 33.6483 1.17254 32.9198 1.17635 32.1807C1.18017 31.4416 1.26149 30.7183 1.412 30.0847C2.39343 25.9463 2.9119 21.2108 2.912 16.3846V13.6395C2.912 10.9554 3.33343 8.38133 4.08357 6.48343C4.83372 4.58553 5.85113 3.5193 6.912 3.5193H8.912C9.97287 3.5193 10.9903 4.58553 11.7404 6.48343C12.4906 8.38133 12.912 10.9554 12.912 13.6395V16.3846C12.912 21.2094 13.43 25.9481 14.412 30.0847C14.5625 30.7183 14.6438 31.4416 14.6476 32.1807C14.6515 32.9198 14.5776 33.6483 14.4337 34.2916C14.2898 34.9349 14.081 35.4699 13.8286 35.8421C13.5761 36.2143 13.2892 36.4102 12.997 36.4099Z" stroke="black" stroke-linecap="round" stroke-linejoin="round"/>
</svg>
