<svg width="40" height="25" viewBox="0 0 40 25" fill="none" xmlns="http://www.w3.org/2000/svg">
<path opacity="0.5" d="M38.6332 19.442L31.8763 15.3336L26.6789 14.0281C28.4095 12.5318 29.3366 10.7467 29.3333 8.9175C29.3333 4.00036 22.7539 0 14.6666 0C6.5794 0 0 4.00036 0 8.9175C0 13.8346 6.5794 17.835 14.6666 17.835C17.7013 17.8371 20.6615 17.2636 23.1349 16.1945L25.2765 19.3461L32.0333 23.4546C32.4666 23.7181 32.981 23.9271 33.5472 24.0697C34.1134 24.2123 34.7203 24.2857 35.3331 24.2857C35.9459 24.2857 36.5528 24.2123 37.119 24.0698C37.6852 23.9272 38.1997 23.7182 38.633 23.4547C39.0664 23.1912 39.4102 22.8784 39.6447 22.5342C39.8792 22.1899 40 21.821 40 21.4484C40 21.0757 39.8793 20.7068 39.6448 20.3625C39.4103 20.0183 39.0666 19.7055 38.6332 19.442ZM2.66666 8.9175C2.66666 4.89449 8.04998 1.62136 14.6666 1.62136C21.2833 1.62136 26.6666 4.89449 26.6666 8.9175C26.6666 12.9405 21.2833 16.2136 14.6666 16.2136C8.04998 16.2136 2.66666 12.9405 2.66666 8.9175ZM36.7475 22.3081C36.3721 22.5358 35.8635 22.6637 35.3333 22.6637C34.803 22.6637 34.2944 22.5358 33.919 22.3081L27.538 18.4284L25.5469 15.4981L30.3666 16.7087L36.7477 20.5884C37.1221 20.8167 37.3324 21.1259 37.3324 21.4483C37.3324 21.7707 37.122 22.0799 36.7475 22.3081Z" fill="black"/>
</svg>
