<svg width="40" height="36" viewBox="0 0 40 36" fill="none" xmlns="http://www.w3.org/2000/svg">
<path d="M39.4718 22.5686L36.3829 20.3192C36.5291 19.556 36.6046 18.7767 36.6046 17.9975C36.6046 17.2182 36.5291 16.4389 36.3829 15.6757L39.4718 13.4263C39.7048 13.2564 39.8716 13.0301 39.9499 12.7776C40.0282 12.525 40.0145 12.2581 39.9104 12.0124L39.868 11.9079C39.0176 9.88354 37.7442 8.00691 36.1094 6.3687L36.0245 6.28435C35.8262 6.08572 35.5619 5.94294 35.2664 5.87482C34.9709 5.8067 34.6581 5.81644 34.3692 5.90275L30.5352 7.06361C29.1205 6.07547 27.5407 5.2962 25.8335 4.74991L25.0931 1.3356C25.0373 1.07869 24.891 0.842341 24.6736 0.65795C24.4563 0.473558 24.1783 0.349854 23.8764 0.303271L23.7491 0.283187C21.2922 -0.0943957 18.7079 -0.0943957 16.2509 0.283187L16.1236 0.303271C15.8217 0.349854 15.5437 0.473558 15.3264 0.65795C15.109 0.842341 14.9627 1.07869 14.9069 1.3356L14.1618 4.76598C12.4682 5.31239 10.8911 6.09124 9.49305 7.07165L5.63075 5.90275C5.34198 5.81575 5.02897 5.80566 4.7333 5.87382C4.43764 5.94199 4.17332 6.08517 3.97549 6.28435L3.8906 6.3687C2.25771 8.00807 0.984569 9.88439 0.132054 11.9079L0.089611 12.0124C-0.122603 12.5145 0.0518841 13.0768 0.528187 13.4263L3.65481 15.6998C3.50861 16.455 3.43788 17.2262 3.43788 17.9934C3.43788 18.7647 3.50861 19.5359 3.65481 20.2871L0.528187 22.5606C0.295203 22.7305 0.128453 22.9567 0.0501108 23.2093C-0.0282314 23.4619 -0.0144541 23.7288 0.089611 23.9745L0.132054 24.079C0.985626 26.1034 2.24948 27.9713 3.8906 29.6182L3.97549 29.7025C4.17381 29.9012 4.43813 30.0439 4.73362 30.1121C5.02911 30.1802 5.34189 30.1704 5.63075 30.0841L9.49305 28.9152C10.8984 29.8994 12.4688 30.6786 14.1618 31.2209L14.9069 34.6513C14.9627 34.9082 15.109 35.1445 15.3264 35.3289C15.5437 35.5133 15.8217 35.637 16.1236 35.6836L16.2509 35.7037C18.7304 36.0833 21.2696 36.0833 23.7491 35.7037L23.8764 35.6836C24.1783 35.637 24.4563 35.5133 24.6736 35.3289C24.891 35.1445 25.0373 34.9082 25.0931 34.6513L25.8335 31.237C27.54 30.6921 29.1287 29.9103 30.5352 28.9233L34.3692 30.0841C34.658 30.1711 34.971 30.1812 35.2667 30.1131C35.5624 30.0449 35.8267 29.9017 36.0245 29.7025L36.1094 29.6182C37.7505 27.9673 39.0144 26.1034 39.868 24.079L39.9104 23.9745C40.1226 23.4804 39.9481 22.9181 39.4718 22.5686ZM33.0347 16.1497C33.1526 16.7563 33.2139 17.3789 33.2139 18.0015C33.2139 18.6241 33.1526 19.2467 33.0347 19.8532L32.7234 21.464L36.2462 24.0307C35.7121 25.0787 35.038 26.0707 34.2372 26.9871L29.8609 25.6656L28.3801 26.7019C27.253 27.4892 25.9986 28.1078 24.6404 28.5417L22.8437 29.1161L21.9995 33.0124C20.6676 33.1409 19.3229 33.1409 17.991 33.0124L17.1469 29.108L15.3643 28.5256C14.0203 28.0918 12.7706 27.4732 11.6529 26.6899L10.1721 25.6495L5.76752 26.9831C4.96582 26.0633 4.29616 25.0711 3.75856 24.0267L7.31904 21.4359L7.0125 19.8291C6.89932 19.2306 6.83802 18.612 6.83802 18.0015C6.83802 17.3869 6.89461 16.7723 7.0125 16.1738L7.31904 14.5671L3.75856 11.9762C4.29145 10.9278 4.96582 9.93967 5.76752 9.01981L10.1721 10.3534L11.6529 9.31304C12.7706 8.52976 14.0203 7.91117 15.3643 7.47735L17.1516 6.90294L17.9958 2.99857C19.3209 2.87003 20.6744 2.87003 22.0042 2.99857L22.8484 6.89491L24.6451 7.46931C25.9986 7.90313 27.2577 8.52173 28.3848 9.30903L29.8656 10.3454L34.2419 9.02383C35.0436 9.94369 35.7133 10.9358 36.2509 11.9802L32.7281 14.547L33.0347 16.1497ZM20.0047 10.5301C15.4209 10.5301 11.7048 13.6954 11.7048 17.5998C11.7048 21.5042 15.4209 24.6694 20.0047 24.6694C24.5885 24.6694 28.3046 21.5042 28.3046 17.5998C28.3046 13.6954 24.5885 10.5301 20.0047 10.5301ZM23.7397 20.7811C23.2498 21.1996 22.6676 21.5314 22.0266 21.7575C21.3857 21.9836 20.6985 22.0996 20.0047 22.0986C18.5947 22.0986 17.2695 21.6287 16.2698 20.7811C15.7785 20.3639 15.3889 19.868 15.1234 19.322C14.858 18.776 14.7219 18.1907 14.7229 17.5998C14.7229 16.3988 15.2747 15.27 16.2698 14.4184C17.2695 13.5669 18.5947 13.1009 20.0047 13.1009C21.4148 13.1009 22.7399 13.5669 23.7397 14.4184C24.231 14.8357 24.6205 15.3316 24.886 15.8776C25.1515 16.4235 25.2876 17.0088 25.2865 17.5998C25.2865 18.8008 24.7347 19.9296 23.7397 20.7811Z" fill="white"/>
</svg>
