<svg width="40" height="31" viewBox="0 0 40 31" fill="none" xmlns="http://www.w3.org/2000/svg">
<path d="M39.0773 12.244L21.3463 0.573527C20.7698 0.194129 20.0108 -0.0111949 19.2277 0.000471244C18.4446 0.0121374 17.6981 0.239891 17.1443 0.636127L0.836875 12.3029L0 12.9016V30.1008H15.7143V19.3695H24.2857V30.1008H40V12.8513L39.0773 12.244ZM19.2891 2.04411C19.3143 2.04411 19.2987 2.04801 19.2879 2.05561C19.2768 2.04801 19.2639 2.04411 19.2891 2.04411ZM37.1429 28.0568H27.1429V19.3695C27.1429 18.8273 26.8418 18.3074 26.306 17.9241C25.7702 17.5408 25.0435 17.3254 24.2857 17.3254H15.7143C14.9565 17.3254 14.2298 17.5408 13.694 17.9241C13.1582 18.3074 12.8571 18.8273 12.8571 19.3695V28.0568H2.85714V13.7483L19.2891 2.08148C19.2903 2.08071 19.2904 2.08001 19.2913 2.07924L37.1429 13.7483V28.0568Z" fill="white"/>
</svg>
