<svg width="31" height="25" viewBox="0 0 31 25" fill="none" xmlns="http://www.w3.org/2000/svg">
<path d="M30.2849 10.1691L16.5433 0.476338C16.0966 0.161233 15.5083 -0.00929781 14.9015 0.000391388C14.2946 0.0100806 13.716 0.199239 13.2868 0.52833L0.648578 10.2181L0 10.7153V25H12.1786V16.0871H18.8214V25H31V10.6735L30.2849 10.1691ZM14.9491 1.69772C14.9686 1.69772 14.9565 1.70095 14.9482 1.70727C14.9395 1.70095 14.9295 1.69772 14.9491 1.69772ZM28.7857 23.3023H21.0357V16.0871C21.0357 15.6369 20.8024 15.2051 20.3872 14.8867C19.9719 14.5683 19.4087 14.3895 18.8214 14.3895H12.1786C11.5913 14.3895 11.0281 14.5683 10.6128 14.8867C10.1976 15.2051 9.96429 15.6369 9.96429 16.0871V23.3023H2.21429V11.4185L14.9491 1.72875L14.9507 1.7269L28.7857 11.4185V23.3023Z" fill="white"/>
</svg>
