<svg width="16" height="19" viewBox="0 0 16 19" fill="none" xmlns="http://www.w3.org/2000/svg">
<path d="M14.912 4C14.645 3.066 14.312 2.4 13.912 2C13.512 1.6 12.846 1.267 11.912 1M1 4C1.209 3.066 1.512 2.4 1.912 2C2.312 1.6 3.008 1.267 4 1M10.412 16.5C9.745 17.5 8.912 18 7.912 18C6.912 18 6.079 17.5 5.412 16.5M12.997 15H2.827C2.53484 15.0001 2.24788 14.9227 1.99545 14.7756C1.74302 14.6285 1.53418 14.417 1.39027 14.1627C1.24635 13.9085 1.17254 13.6206 1.17635 13.3284C1.18017 13.0363 1.26149 12.7504 1.412 12.5C2.39343 10.8643 2.9119 8.99257 2.912 7.085V6C2.912 4.93913 3.33343 3.92172 4.08357 3.17157C4.83372 2.42143 5.85113 2 6.912 2H8.912C9.97287 2 10.9903 2.42143 11.7404 3.17157C12.4906 3.92172 12.912 4.93913 12.912 6V7.085C12.912 8.992 13.43 10.865 14.412 12.5C14.5625 12.7504 14.6438 13.0363 14.6476 13.3284C14.6515 13.6206 14.5776 13.9085 14.4337 14.1627C14.2898 14.417 14.081 14.6285 13.8286 14.7756C13.5761 14.9227 13.2892 15.0001 12.997 15Z" stroke="black" stroke-linecap="round" stroke-linejoin="round"/>
</svg>
