<svg width="40" height="42" viewBox="0 0 40 42" fill="none" xmlns="http://www.w3.org/2000/svg">
<path d="M20 0C8.95536 0 0 9.23596 0 20.6267C0 32.0174 8.95536 41.2534 20 41.2534C31.0446 41.2534 40 32.0174 40 20.6267C40 9.23596 31.0446 0 20 0ZM20 37.7542C10.8304 37.7542 3.39286 30.0836 3.39286 20.6267C3.39286 11.1697 10.8304 3.49917 20 3.49917C29.1696 3.49917 36.6071 11.1697 36.6071 20.6267C36.6071 30.0836 29.1696 37.7542 20 37.7542ZM28.8571 10.6771C28.6823 10.6066 28.4957 10.5724 28.308 10.5763C28.1204 10.5803 27.9353 10.6223 27.7634 10.7001L15.6652 16.1606L10.375 28.6379C10.2143 29.0155 10.2143 29.4437 10.375 29.8212C10.5268 30.1803 10.808 30.4612 11.1652 30.6039C11.3348 30.673 11.5089 30.7052 11.6875 30.7052C11.8839 30.7052 12.0759 30.6638 12.2589 30.5809L24.3571 25.1203L29.6473 12.643C29.7245 12.461 29.7652 12.2647 29.7671 12.0659C29.7689 11.8672 29.7319 11.6701 29.6581 11.4866C29.5843 11.303 29.4753 11.1366 29.3377 10.9975C29.2001 10.8584 29.0366 10.7494 28.8571 10.6771ZM22.8929 21.658L24.0625 22.8643L22.1696 24.8165L21 23.6102L14.1071 26.7226L17.1205 19.6138L15.9821 18.4351L17.875 16.4829L19.0134 17.657L25.9107 14.5492L22.8929 21.658ZM17.875 16.4829L15.9821 18.4351L17.1205 19.6138L21 23.6102L22.1696 24.8165L24.0625 22.8643L22.8929 21.658L19.0179 17.657L17.875 16.4829Z" fill="white"/>
</svg>
