<svg width="33" height="31" viewBox="0 0 33 31" fill="none" xmlns="http://www.w3.org/2000/svg">
<path d="M16.5 0C7.38817 0 0 6.9404 0 15.5C0 24.0596 7.38817 31 16.5 31C25.6118 31 33 24.0596 33 15.5C33 6.9404 25.6118 0 16.5 0ZM16.5 28.3705C8.93505 28.3705 2.79911 22.6065 2.79911 15.5C2.79911 8.39353 8.93505 2.62946 16.5 2.62946C24.065 2.62946 30.2009 8.39353 30.2009 15.5C30.2009 22.6065 24.065 28.3705 16.5 28.3705ZM23.8071 8.02332C23.6629 7.97038 23.509 7.94465 23.3541 7.94762C23.1993 7.95059 23.0466 7.98219 22.9048 8.04062L12.9238 12.144L8.55937 21.5201C8.42679 21.8038 8.42679 22.1256 8.55937 22.4093C8.6846 22.6791 8.91663 22.8902 9.21127 22.9974C9.35123 23.0493 9.49487 23.0735 9.64219 23.0735C9.80424 23.0735 9.96261 23.0424 10.1136 22.9801L20.0946 18.8768L24.459 9.50067C24.5227 9.36383 24.5563 9.21633 24.5578 9.067C24.5594 8.91766 24.5288 8.76958 24.4679 8.63162C24.407 8.49367 24.3171 8.36868 24.2036 8.26415C24.09 8.15963 23.9552 8.07771 23.8071 8.02332ZM18.8866 16.275L19.8516 17.1815L18.29 18.6484L17.325 17.742L11.6384 20.0808L14.1244 14.7388L13.1853 13.8531L14.7469 12.3862L15.686 13.2684L21.3763 10.933L18.8866 16.275ZM14.7469 12.3862L13.1853 13.8531L14.1244 14.7388L17.325 17.742L18.29 18.6484L19.8516 17.1815L18.8866 16.275L15.6897 13.2684L14.7469 12.3862Z" fill="white"/>
</svg>
