<svg width="40" height="31" viewBox="0 0 40 31" fill="none" xmlns="http://www.w3.org/2000/svg">
<path d="M36.0068 20.7494L28.349 17.8418L31.2974 14.705C32.0085 13.9217 32.3811 13.05 32.383 12.1646V7.19199C32.3806 5.28596 31.0754 3.45832 28.7538 2.11003C26.4322 0.761744 23.2837 0.00290756 19.9992 0C13.1777 0 7.628 3.22636 7.628 7.19199V12.1646C7.62073 13.0496 7.98923 13.9219 8.70092 14.7045L11.6653 17.8583L4.05209 20.7494C2.82387 21.2149 1.81539 21.8509 1.11817 22.5999C0.420948 23.3489 0.0570523 24.187 0.0595073 25.0383L0 30.9502H40V25.0448C40.0038 24.1924 39.6405 23.353 38.9432 22.6029C38.2458 21.8527 37.2364 21.2156 36.0068 20.7494ZM36.1915 28.7402H3.8306L3.8675 25.0448C3.86462 24.5596 4.07077 24.0816 4.4672 23.6544C4.86364 23.2271 5.43779 22.8642 6.13746 22.5985L16.6919 18.5907L12.0443 13.6462C11.6414 13.1875 11.433 12.6795 11.4365 12.1646V7.19199C11.4365 5.87315 12.3393 4.60834 13.9463 3.67578C15.5533 2.74323 17.7329 2.21933 20.0055 2.21933C22.2782 2.21933 24.4577 2.74323 26.0648 3.67578C27.6718 4.60834 28.5746 5.87315 28.5746 7.19199V12.1646C28.5742 12.6802 28.3614 13.1881 27.9539 13.6462L23.3223 18.5738L33.9215 22.5985C34.6212 22.8642 35.1953 23.2272 35.5918 23.6544C35.9882 24.0817 36.1944 24.5596 36.1915 25.0449V28.7402Z" fill="white"/>
</svg>
