<svg width="19" height="44" viewBox="0 0 19 44" fill="none" xmlns="http://www.w3.org/2000/svg">
<path d="M13.8182 0.109375C12.0045 0.109375 10.4275 2.27564 9.5 5.90591C8.57245 2.27564 6.99545 0.109375 5.18182 0.109375C3.80801 0.113613 2.49092 1.561 1.51949 4.13402C0.548054 6.70705 0.00159998 10.1956 0 13.8344C0 20.5139 1.57182 27.4656 4.67227 34.4928C6.093 37.6994 7.62765 40.5339 9.25473 42.9566C9.33013 43.0639 9.4144 43.1201 9.5 43.1201C9.5856 43.1201 9.66987 43.0639 9.74527 42.9566C11.3723 40.5339 12.907 37.6994 14.3277 34.4928C17.4282 27.4656 19 20.5139 19 13.8344C18.9984 10.1956 18.4519 6.70705 17.4805 4.13402C16.5091 1.561 15.192 0.113613 13.8182 0.109375ZM9.5 40.1659C8.08277 37.9996 1.03636 26.5804 1.03636 13.8344C1.03751 10.9232 1.47463 8.13219 2.2518 6.0737C3.02898 4.0152 4.08273 2.85741 5.18182 2.85438C6.93327 2.85438 8.40405 5.33175 9.02068 9.32115C9.05972 9.57288 9.12613 9.78819 9.21148 9.93972C9.29683 10.0912 9.39725 10.1722 9.5 10.1722C9.60275 10.1722 9.70317 10.0912 9.78852 9.93972C9.87387 9.78819 9.94028 9.57288 9.97932 9.32115C10.596 5.33175 12.0667 2.85438 13.8182 2.85438C14.9173 2.85741 15.971 4.0152 16.7482 6.0737C17.5254 8.13219 17.9625 10.9232 17.9636 13.8344C17.9636 26.5804 10.9172 37.9996 9.5 40.1659Z" fill="black"/>
</svg>
