<svg width="26" height="24" viewBox="0 0 26 24" fill="none" xmlns="http://www.w3.org/2000/svg">
<path d="M23.4044 16.0899L18.4269 13.8352L20.3433 11.4028C20.8055 10.7954 21.0477 10.1194 21.049 9.43293V5.57694C21.0474 4.09893 20.199 2.68172 18.69 1.6362C17.1809 0.590685 15.1344 0.00225463 12.9995 0C8.56547 0 4.9582 2.50184 4.9582 5.57694V9.43293C4.95348 10.1191 5.193 10.7955 5.6556 11.4024L7.58247 13.848L2.63386 16.0899C1.83552 16.4508 1.18001 16.9441 0.726811 17.5248C0.273616 18.1056 0.037084 18.7556 0.0386797 19.4157L0 24H26V19.4207C26.0025 18.7597 25.7663 18.1088 25.3131 17.5271C24.8598 16.9454 24.2037 16.4514 23.4044 16.0899ZM23.5245 22.2862H2.48989L2.51387 19.4207C2.512 19.0444 2.646 18.6738 2.90368 18.3425C3.16136 18.0112 3.53456 17.7297 3.98935 17.5237L10.8497 14.4159L7.82878 10.5818C7.56689 10.2261 7.43145 9.8322 7.43371 9.43293V5.57694C7.43371 4.55427 8.02053 3.57348 9.06509 2.85034C10.1096 2.1272 11.5264 1.72095 13.0036 1.72095C14.4808 1.72095 15.8975 2.1272 16.9421 2.85034C17.9866 3.57348 18.5735 4.55427 18.5735 5.57694V9.43293C18.5732 9.83268 18.4349 10.2266 18.17 10.5818L15.1595 14.4029L22.049 17.5238C22.5038 17.7298 22.877 18.0113 23.1347 18.3426C23.3923 18.6739 23.5263 19.0445 23.5245 19.4207V22.2862Z" fill="white"/>
</svg>
