<svg width="29" height="20" viewBox="0 0 29 20" fill="none" xmlns="http://www.w3.org/2000/svg">
<path d="M28.6171 12.5422L26.3776 11.2921C26.4836 10.8679 26.5383 10.4349 26.5383 10.0018C26.5383 9.56874 26.4836 9.13568 26.3776 8.71154L28.6171 7.46146C28.786 7.36704 28.9069 7.2413 28.9637 7.10094C29.0205 6.96058 29.0105 6.81225 28.935 6.67569L28.9043 6.61765C28.2877 5.49263 27.3646 4.44972 26.1793 3.53931L26.1178 3.49243C25.974 3.38205 25.7824 3.3027 25.5681 3.26484C25.3539 3.22698 25.1271 3.2324 24.9177 3.28036L22.1381 3.9255C21.1124 3.37635 19.967 2.94328 18.7293 2.63969L18.1925 0.742239C18.152 0.599466 18.0459 0.468118 17.8884 0.365645C17.7308 0.263173 17.5292 0.194426 17.3104 0.168538L17.2181 0.157377C15.4368 -0.052459 13.5632 -0.052459 11.7819 0.157377L11.6896 0.168538C11.4708 0.194426 11.2692 0.263173 11.1116 0.365645C10.954 0.468118 10.848 0.599466 10.8075 0.742239L10.2673 2.64862C9.03947 2.95228 7.89608 3.38511 6.88246 3.92996L4.0823 3.28036C3.87294 3.23201 3.646 3.22641 3.43164 3.26429C3.21729 3.30217 3.02566 3.38174 2.88223 3.49243L2.82068 3.53931C1.63684 4.45036 0.713813 5.4931 0.095739 6.61765L0.0649679 6.67569C-0.0888872 6.95472 0.037616 7.26725 0.382935 7.46146L2.64973 8.72494C2.54375 9.14461 2.49246 9.57321 2.49246 9.99958C2.49246 10.4282 2.54375 10.8568 2.64973 11.2742L0.382935 12.5377C0.214022 12.6321 0.0931284 12.7579 0.0363303 12.8982C-0.0204677 13.0386 -0.0104793 13.1869 0.0649679 13.3235L0.095739 13.3815C0.714579 14.5066 1.63087 15.5446 2.82068 16.4598L2.88223 16.5067C3.02601 16.6171 3.21764 16.6965 3.43187 16.7343C3.6461 16.7722 3.87287 16.7668 4.0823 16.7188L6.88246 16.0692C7.90132 16.6161 9.03985 17.0492 10.2673 17.3505L10.8075 19.2569C10.848 19.3997 10.954 19.531 11.1116 19.6335C11.2692 19.736 11.4708 19.8047 11.6896 19.8306L11.7819 19.8418C13.5796 20.0527 15.4204 20.0527 17.2181 19.8418L17.3104 19.8306C17.5292 19.8047 17.7308 19.736 17.8884 19.6335C18.0459 19.531 18.152 19.3997 18.1925 19.2569L18.7293 17.3595C19.9665 17.0567 21.1183 16.6222 22.1381 16.0737L24.9177 16.7188C25.1271 16.7671 25.354 16.7727 25.5684 16.7349C25.7827 16.697 25.9743 16.6174 26.1178 16.5067L26.1793 16.4598C27.3691 15.5424 28.2854 14.5066 28.9043 13.3815L28.935 13.3235C29.0889 13.0489 28.9624 12.7364 28.6171 12.5422ZM23.9501 8.97495C24.0356 9.31203 24.08 9.65804 24.08 10.004C24.08 10.35 24.0356 10.6961 23.9501 11.0331L23.7245 11.9283L26.2785 13.3547C25.8913 13.9371 25.4026 14.4884 24.822 14.9977L21.6491 14.2633L20.5756 14.8392C19.7584 15.2767 18.849 15.6205 17.8643 15.8616L16.5617 16.1808L15.9497 18.3461C14.984 18.4176 14.0091 18.4176 13.0435 18.3461L12.4315 16.1763L11.1391 15.8527C10.1647 15.6116 9.25867 15.2678 8.44836 14.8325L7.3748 14.2543L4.18145 14.9955C3.60022 14.4843 3.11472 13.9329 2.72495 13.3525L5.3063 11.9127L5.08406 11.0197C5.00201 10.6871 4.95756 10.3434 4.95756 10.004C4.95756 9.6625 4.99859 9.32096 5.08406 8.98835L5.3063 8.09543L2.72495 6.6556C3.1113 6.07297 3.60022 5.52382 4.18145 5.01262L7.3748 5.75375L8.44836 5.17558C9.25867 4.74028 10.1647 4.39651 11.1391 4.15542L12.4349 3.8362L13.0469 1.66641C14.0077 1.59498 14.9889 1.59498 15.9531 1.66641L16.5651 3.83174L17.8677 4.15096C18.849 4.39205 19.7618 4.73582 20.579 5.17335L21.6526 5.74928L24.8254 5.01486C25.4066 5.52605 25.8921 6.07743 26.2819 6.65783L23.7279 8.08427L23.9501 8.97495ZM14.5034 5.85197C11.1801 5.85197 8.48597 7.61102 8.48597 9.78081C8.48597 11.9506 11.1801 13.7097 14.5034 13.7097C17.8267 13.7097 20.5209 11.9506 20.5209 9.78081C20.5209 7.61102 17.8267 5.85197 14.5034 5.85197ZM17.2113 11.5488C16.8561 11.7813 16.434 11.9658 15.9693 12.0914C15.5046 12.2171 15.0064 12.2815 14.5034 12.281C13.4811 12.281 12.5204 12.0198 11.7956 11.5488C11.4394 11.3169 11.1569 11.0413 10.9645 10.7379C10.772 10.4345 10.6734 10.1092 10.6741 9.78081C10.6741 9.11336 11.0742 8.48608 11.7956 8.01283C12.5204 7.53959 13.4811 7.28064 14.5034 7.28064C15.5257 7.28064 16.4864 7.53959 17.2113 8.01283C17.5674 8.24472 17.8499 8.5203 18.0424 8.82372C18.2348 9.12714 18.3335 9.4524 18.3327 9.78081C18.3327 10.4483 17.9327 11.0755 17.2113 11.5488Z" fill="white"/>
</svg>
